<?xml version="1.0" encoding="UTF-8" standalone="no"?>
<svg
   xmlns:dc="http://purl.org/dc/elements/1.1/"
   xmlns:cc="http://creativecommons.org/ns#"
   xmlns:rdf="http://www.w3.org/1999/02/22-rdf-syntax-ns#"
   xmlns:svg="http://www.w3.org/2000/svg"
   xmlns="http://www.w3.org/2000/svg"
   xmlns:sodipodi="http://sodipodi.sourceforge.net/DTD/sodipodi-0.dtd"
   xmlns:inkscape="http://www.inkscape.org/namespaces/inkscape"
   viewBox="0 0 448 512"
   version="1.1"
   id="svg949"
   sodipodi:docname="nav-left-flat.svg"
   inkscape:version="1.0.1 (3bc2e813f5, 2020-09-07, custom)">
  <metadata
     id="metadata953">
    <rdf:RDF>
      <cc:Work
         rdf:about="">
        <dc:format>image/svg+xml</dc:format>
        <dc:type
           rdf:resource="http://purl.org/dc/dcmitype/StillImage" />
      </cc:Work>
    </rdf:RDF>
  </metadata>
  <sodipodi:namedview
     pagecolor="#ffffff"
     bordercolor="#666666"
     borderopacity="1"
     objecttolerance="10"
     gridtolerance="10"
     guidetolerance="10"
     inkscape:pageopacity="0"
     inkscape:pageshadow="2"
     inkscape:window-width="1529"
     inkscape:window-height="893"
     id="namedview951"
     showgrid="false"
     inkscape:zoom="1.0019531"
     inkscape:cx="212.71152"
     inkscape:cy="210.81055"
     inkscape:window-x="2058"
     inkscape:window-y="658"
     inkscape:window-maximized="0"
     inkscape:current-layer="svg949"
     inkscape:document-rotation="0" />
  <!-- Font Awesome Pro 5.15.2 by @fontawesome - https://fontawesome.com License - https://fontawesome.com/license (Commercial License) -->
  <defs
     id="defs943">
    <style
       id="style941">.fa-secondary{opacity:.4}</style>
  </defs>
  <path
     style="fill:#999999;fill-opacity:1;stroke:none;stroke-width:2.3;stroke-miterlimit:4;stroke-dasharray:none;stroke-opacity:1"
     d="M48 32H16A16 16 0 0 0 0 48v416a16 16 0 0 0 16 16h32a16 16 0 0 0 16-16V48a16 16 0 0 0-16-16z"
     class="fa-primary"
     id="path947" />
  <rect
     style="opacity:0.4;fill:#999999;fill-opacity:1;stroke:none;stroke-width:2.59594;stroke-miterlimit:4;stroke-dasharray:none;stroke-opacity:1"
     id="rect839"
     class="fa-secondary"
     width="350.29919"
     height="445.14349"
     x="81.700813"
     y="32"
     ry="0" />
  <path
     style="fill:#606060;fill-opacity:1;stroke:none;stroke-width:0.45421;stroke-miterlimit:4;stroke-dasharray:none;stroke-opacity:1"
     d="M 48.682872,59.991266 H 17.758152 A 15.462362,0.64568689 0 0 0 2.2957918,60.636957 v 16.787859 a 15.462362,0.64568689 0 0 0 15.4623602,0.645691 h 30.92472 a 15.462362,0.64568689 0 0 0 15.46236,-0.645691 V 60.636957 a 15.462362,0.64568689 0 0 0 -15.46236,-0.645691 z"
     class="fa-primary"
     id="path947-3" />
  <path
     style="fill:#606060;fill-opacity:1;stroke:none;stroke-width:0.45421;stroke-miterlimit:4;stroke-dasharray:none;stroke-opacity:1"
     d="m 48.682872,106.92325 h -30.92472 a 15.462362,0.64568689 0 0 0 -15.4623602,0.64569 v 16.78785 a 15.462362,0.64568689 0 0 0 15.4623602,0.64569 h 30.92472 a 15.462362,0.64568689 0 0 0 15.46236,-0.64569 v -16.78785 a 15.462362,0.64568689 0 0 0 -15.46236,-0.64569 z"
     class="fa-primary"
     id="path947-3-6" />
  <path
     style="fill:#606060;fill-opacity:1;stroke:none;stroke-width:0.45421;stroke-miterlimit:4;stroke-dasharray:none;stroke-opacity:1"
     d="m 48.682872,153.85522 h -30.92472 a 15.462362,0.64568689 0 0 0 -15.4623602,0.64569 v 16.78786 a 15.462362,0.64568689 0 0 0 15.4623602,0.64569 h 30.92472 a 15.462362,0.64568689 0 0 0 15.46236,-0.64569 v -16.78786 a 15.462362,0.64568689 0 0 0 -15.46236,-0.64569 z"
     class="fa-primary"
     id="path947-3-7" />
  <path
     style="fill:#606060;fill-opacity:1;stroke:none;stroke-width:0.45421;stroke-miterlimit:4;stroke-dasharray:none;stroke-opacity:1"
     d="m 48.682872,200.78718 h -30.92472 a 15.462362,0.64568689 0 0 0 -15.4623602,0.64569 v 16.78786 a 15.462362,0.64568689 0 0 0 15.4623602,0.64569 h 30.92472 a 15.462362,0.64568689 0 0 0 15.46236,-0.64569 v -16.78786 a 15.462362,0.64568689 0 0 0 -15.46236,-0.64569 z"
     class="fa-primary"
     id="path947-3-5" />
  <path
     style="fill:#606060;fill-opacity:1;stroke:none;stroke-width:0.45421;stroke-miterlimit:4;stroke-dasharray:none;stroke-opacity:1"
     d="m 48.682872,247.71917 h -30.92472 a 15.462362,0.64568689 0 0 0 -15.4623602,0.64569 v 16.78786 a 15.462362,0.64568689 0 0 0 15.4623602,0.64569 h 30.92472 a 15.462362,0.64568689 0 0 0 15.46236,-0.64569 v -16.78786 a 15.462362,0.64568689 0 0 0 -15.46236,-0.64569 z"
     class="fa-primary"
     id="path947-3-3" />
  <path
     style="fill:#606060;fill-opacity:1;stroke:none;stroke-width:0.45421;stroke-miterlimit:4;stroke-dasharray:none;stroke-opacity:1"
     d="M 48.682872,294.65111 H 17.758152 A 15.462362,0.64568689 0 0 0 2.2957918,295.2968 v 16.78786 a 15.462362,0.64568689 0 0 0 15.4623602,0.64569 h 30.92472 a 15.462362,0.64568689 0 0 0 15.46236,-0.64569 V 295.2968 a 15.462362,0.64568689 0 0 0 -15.46236,-0.64569 z"
     class="fa-primary"
     id="path947-3-9" />
  <path
     style="fill:#606060;fill-opacity:1;stroke:none;stroke-width:0.45421;stroke-miterlimit:4;stroke-dasharray:none;stroke-opacity:1"
     d="m 48.682872,341.5831 h -30.92472 a 15.462362,0.64568689 0 0 0 -15.4623602,0.64569 v 16.78786 a 15.462362,0.64568689 0 0 0 15.4623602,0.64569 h 30.92472 a 15.462362,0.64568689 0 0 0 15.46236,-0.64569 v -16.78786 a 15.462362,0.64568689 0 0 0 -15.46236,-0.64569 z"
     class="fa-primary"
     id="path947-3-1" />
  <path
     style="fill:#606060;fill-opacity:1;stroke:none;stroke-width:0.45421;stroke-miterlimit:4;stroke-dasharray:none;stroke-opacity:1"
     d="m 48.682872,388.51507 h -30.92472 a 15.462362,0.64568689 0 0 0 -15.4623602,0.64569 v 16.78786 a 15.462362,0.64568689 0 0 0 15.4623602,0.64569 h 30.92472 a 15.462362,0.64568689 0 0 0 15.46236,-0.64569 v -16.78786 a 15.462362,0.64568689 0 0 0 -15.46236,-0.64569 z"
     class="fa-primary"
     id="path947-3-27" />
  <path
     style="fill:#606060;fill-opacity:1;stroke:none;stroke-width:0.45421;stroke-miterlimit:4;stroke-dasharray:none;stroke-opacity:1"
     d="m 48.682872,435.44705 h -30.92472 a 15.462362,0.64568689 0 0 0 -15.4623602,0.64569 v 16.78786 a 15.462362,0.64568689 0 0 0 15.4623602,0.64569 h 30.92472 a 15.462362,0.64568689 0 0 0 15.46236,-0.64569 v -16.78786 a 15.462362,0.64568689 0 0 0 -15.46236,-0.64569 z"
     class="fa-primary"
     id="path947-3-0" />
</svg>
