<?xml version="1.0" encoding="UTF-8" standalone="no"?>
<svg
   xmlns:dc="http://purl.org/dc/elements/1.1/"
   xmlns:cc="http://creativecommons.org/ns#"
   xmlns:rdf="http://www.w3.org/1999/02/22-rdf-syntax-ns#"
   xmlns:svg="http://www.w3.org/2000/svg"
   xmlns="http://www.w3.org/2000/svg"
   xmlns:sodipodi="http://sodipodi.sourceforge.net/DTD/sodipodi-0.dtd"
   xmlns:inkscape="http://www.inkscape.org/namespaces/inkscape"
   viewBox="0 0 448 512"
   version="1.1"
   id="svg949"
   sodipodi:docname="nav-left-expanding.svg"
   inkscape:version="1.0.1 (3bc2e813f5, 2020-09-07, custom)">
  <metadata
     id="metadata953">
    <rdf:RDF>
      <cc:Work
         rdf:about="">
        <dc:format>image/svg+xml</dc:format>
        <dc:type
           rdf:resource="http://purl.org/dc/dcmitype/StillImage" />
      </cc:Work>
    </rdf:RDF>
  </metadata>
  <sodipodi:namedview
     pagecolor="#ffffff"
     bordercolor="#666666"
     borderopacity="1"
     objecttolerance="10"
     gridtolerance="10"
     guidetolerance="10"
     inkscape:pageopacity="0"
     inkscape:pageshadow="2"
     inkscape:window-width="819"
     inkscape:window-height="824"
     id="namedview951"
     showgrid="false"
     inkscape:zoom="1.0019531"
     inkscape:cx="67.815447"
     inkscape:cy="285.47875"
     inkscape:window-x="1518"
     inkscape:window-y="156"
     inkscape:window-maximized="0"
     inkscape:current-layer="svg949"
     inkscape:document-rotation="0" />
  <!-- Font Awesome Pro 5.15.2 by @fontawesome - https://fontawesome.com License - https://fontawesome.com/license (Commercial License) -->
  <defs
     id="defs943">
    <style
       id="style941">.fa-secondary{opacity:.4}</style>
  </defs>
  <path
     style="fill:#999999;fill-opacity:1;stroke:none;stroke-width:2.3;stroke-miterlimit:4;stroke-dasharray:none;stroke-opacity:1"
     d="M48 32H16A16 16 0 0 0 0 48v416a16 16 0 0 0 16 16h32a16 16 0 0 0 16-16V48a16 16 0 0 0-16-16z"
     class="fa-primary"
     id="path947" />
  <rect
     style="opacity:0.4;fill:#999999;fill-opacity:1;stroke:none;stroke-width:2.59594;stroke-miterlimit:4;stroke-dasharray:none;stroke-opacity:1"
     id="rect839"
     class="fa-secondary"
     width="350.29919"
     height="445.14349"
     x="81.700813"
     y="32"
     ry="0" />
  <path
     style="fill:#606060;fill-opacity:1;stroke:none;stroke-width:0.554319;stroke-miterlimit:4;stroke-dasharray:none;stroke-opacity:1"
     d="m 49.966507,76.826869 h -30.92473 a 15.462362,0.96167334 0 0 0 -15.4623594,0.96168 v 25.003491 a 15.462362,0.96167334 0 0 0 15.4623594,0.96168 h 30.92473 a 15.462362,0.96167334 0 0 0 15.462351,-0.96168 V 77.788549 a 15.462362,0.96167334 0 0 0 -15.462351,-0.96168 z"
     class="fa-primary"
     id="path947-3" />
  <path
     style="fill:#606060;fill-opacity:1;stroke:none;stroke-width:1.47901;stroke-miterlimit:4;stroke-dasharray:none;stroke-opacity:1"
     d="M 149.13547,71.998378 H 92.757701 a 28.188881,3.7553574 0 0 0 -28.188876,3.755377 v 97.639265 a 28.188881,3.7553574 0 0 0 28.188876,3.75539 h 56.377769 a 28.188881,3.7553574 0 0 0 28.18886,-3.75539 V 75.753755 a 28.188881,3.7553574 0 0 0 -28.18886,-3.755377 z"
     class="fa-primary"
     id="path947-3-0" />
  <path
     style="fill:#606060;fill-opacity:1;stroke:none;stroke-width:0.554319;stroke-miterlimit:4;stroke-dasharray:none;stroke-opacity:1"
     d="m 49.966507,241.4827 h -30.92473 a 15.462362,0.96167334 0 0 0 -15.4623594,0.96168 v 25.0035 a 15.462362,0.96167334 0 0 0 15.4623594,0.96169 h 30.92473 a 15.462362,0.96167334 0 0 0 15.462351,-0.96169 v -25.0035 A 15.462362,0.96167334 0 0 0 49.966507,241.4827 Z"
     class="fa-primary"
     id="path947-3-62" />
  <path
     style="fill:#606060;fill-opacity:1;stroke:none;stroke-width:0.554319;stroke-miterlimit:4;stroke-dasharray:none;stroke-opacity:1"
     d="m 49.966507,406.13856 h -30.92473 a 15.462362,0.96167334 0 0 0 -15.4623594,0.96168 v 25.0035 a 15.462362,0.96167334 0 0 0 15.4623594,0.96167 h 30.92473 a 15.462362,0.96167334 0 0 0 15.462351,-0.96167 v -25.0035 a 15.462362,0.96167334 0 0 0 -15.462351,-0.96168 z"
     class="fa-primary"
     id="path947-3-61" />
</svg>
